<mxfile host="65bd71144e">
    <diagram name="Page-1" id="n2a1vAMLf4t_mCWJdyhl">
        <mxGraphModel dx="1020" dy="585" grid="0" gridSize="10" guides="1" tooltips="1" connect="1" arrows="1" fold="1" page="0" pageScale="1" pageWidth="850" pageHeight="1100" background="#ffffff" math="0" shadow="0">
            <root>
                <mxCell id="0"/>
                <mxCell id="1" parent="0"/>
                <mxCell id="FQvKzr6Gb9Vi9thFy315-1" value="m" style="ellipse;whiteSpace=wrap;html=1;aspect=fixed;fillColor=#dae8fc;strokeColor=#6c8ebf;fontSize=14;fontColor=#6C8EBF;" parent="1" vertex="1">
                    <mxGeometry x="80" y="120" width="40" height="40" as="geometry"/>
                </mxCell>
                <mxCell id="FQvKzr6Gb9Vi9thFy315-3" value="l" style="ellipse;whiteSpace=wrap;html=1;aspect=fixed;fillColor=#dae8fc;strokeColor=#6c8ebf;fontSize=14;fontColor=#6C8EBF;" parent="1" vertex="1">
                    <mxGeometry x="40" y="180" width="40" height="40" as="geometry"/>
                </mxCell>
                <mxCell id="FQvKzr6Gb9Vi9thFy315-4" value="r" style="ellipse;whiteSpace=wrap;html=1;aspect=fixed;fillColor=#dae8fc;strokeColor=#6c8ebf;fontSize=14;fontColor=#6C8EBF;" parent="1" vertex="1">
                    <mxGeometry x="120" y="180" width="40" height="40" as="geometry"/>
                </mxCell>
                <mxCell id="FQvKzr6Gb9Vi9thFy315-5" value="r" style="ellipse;whiteSpace=wrap;html=1;aspect=fixed;fillColor=#d5e8d4;strokeColor=#82b366;fontSize=14;fontColor=#82B366;" parent="1" vertex="1">
                    <mxGeometry x="520" y="120" width="40" height="40" as="geometry"/>
                </mxCell>
                <mxCell id="FQvKzr6Gb9Vi9thFy315-6" value="m" style="ellipse;whiteSpace=wrap;html=1;aspect=fixed;fillColor=#d5e8d4;strokeColor=#82b366;fontSize=14;fontColor=#82B366;" parent="1" vertex="1">
                    <mxGeometry x="480" y="160" width="40" height="40" as="geometry"/>
                </mxCell>
                <mxCell id="FQvKzr6Gb9Vi9thFy315-7" value="l" style="ellipse;whiteSpace=wrap;html=1;aspect=fixed;fillColor=#d5e8d4;strokeColor=#82b366;fontSize=14;fontColor=#82B366;" parent="1" vertex="1">
                    <mxGeometry x="440" y="200" width="40" height="40" as="geometry"/>
                </mxCell>
                <mxCell id="FQvKzr6Gb9Vi9thFy315-8" value="l" style="ellipse;whiteSpace=wrap;html=1;aspect=fixed;fillColor=#e1d5e7;strokeColor=#9673a6;fontSize=14;fontColor=#9673A6;" parent="1" vertex="1">
                    <mxGeometry x="240" y="120" width="40" height="40" as="geometry"/>
                </mxCell>
                <mxCell id="FQvKzr6Gb9Vi9thFy315-9" value="m" style="ellipse;whiteSpace=wrap;html=1;aspect=fixed;fillColor=#e1d5e7;strokeColor=#9673a6;fontSize=14;fontColor=#9673A6;" parent="1" vertex="1">
                    <mxGeometry x="280" y="160" width="40" height="40" as="geometry"/>
                </mxCell>
                <mxCell id="FQvKzr6Gb9Vi9thFy315-10" value="r" style="ellipse;whiteSpace=wrap;html=1;aspect=fixed;fillColor=#e1d5e7;strokeColor=#9673a6;fontSize=14;fontColor=#9673A6;" parent="1" vertex="1">
                    <mxGeometry x="320" y="200" width="40" height="40" as="geometry"/>
                </mxCell>
                <mxCell id="FQvKzr6Gb9Vi9thFy315-11" value="m" style="ellipse;whiteSpace=wrap;html=1;aspect=fixed;fillColor=#f8cecc;strokeColor=#b85450;fontSize=14;fontColor=#B85450;" parent="1" vertex="1">
                    <mxGeometry x="680" y="180" width="40" height="40" as="geometry"/>
                </mxCell>
                <mxCell id="FQvKzr6Gb9Vi9thFy315-12" value="l" style="ellipse;whiteSpace=wrap;html=1;aspect=fixed;fillColor=#f8cecc;strokeColor=#b85450;fontSize=14;fontColor=#B85450;" parent="1" vertex="1">
                    <mxGeometry x="640" y="120" width="40" height="40" as="geometry"/>
                </mxCell>
                <mxCell id="FQvKzr6Gb9Vi9thFy315-13" value="r" style="ellipse;whiteSpace=wrap;html=1;aspect=fixed;fillColor=#f8cecc;strokeColor=#b85450;fontSize=14;fontColor=#B85450;" parent="1" vertex="1">
                    <mxGeometry x="720" y="120" width="40" height="40" as="geometry"/>
                </mxCell>
                <mxCell id="FQvKzr6Gb9Vi9thFy315-14" value="相邻的三个数字，它们的大小关系分为四种情况" style="text;html=1;align=center;verticalAlign=middle;whiteSpace=wrap;rounded=0;fontSize=15;" parent="1" vertex="1">
                    <mxGeometry x="248" y="20" width="330" height="50" as="geometry"/>
                </mxCell>
                <mxCell id="FQvKzr6Gb9Vi9thFy315-15" value="mid &amp;gt; left &amp;amp;&amp;nbsp;&lt;span style=&quot;background-color: initial;&quot;&gt;mid &amp;gt; right&lt;/span&gt;&lt;div&gt;&lt;div style=&quot;font-size: 15px;&quot;&gt;此刻mid就是一个peak&lt;/div&gt;&lt;/div&gt;" style="text;html=1;align=center;verticalAlign=middle;whiteSpace=wrap;rounded=0;fontSize=15;fillColor=#dae8fc;strokeColor=none;fontColor=#6C8EBF;spacingTop=0;" parent="1" vertex="1">
                    <mxGeometry x="10" y="250" width="180" height="60" as="geometry"/>
                </mxCell>
                <mxCell id="FQvKzr6Gb9Vi9thFy315-16" value="left &amp;gt; mid &amp;gt; right" style="text;html=1;align=center;verticalAlign=middle;whiteSpace=wrap;rounded=0;fontSize=15;fillColor=#e1d5e7;strokeColor=none;spacingTop=0;fontColor=#9673A6;" parent="1" vertex="1">
                    <mxGeometry x="210" y="250" width="180" height="60" as="geometry"/>
                </mxCell>
                <mxCell id="FQvKzr6Gb9Vi9thFy315-17" value="right &amp;gt; mid &amp;gt; left" style="text;html=1;align=center;verticalAlign=middle;whiteSpace=wrap;rounded=0;fontSize=15;fillColor=#d5e8d4;strokeColor=none;spacingTop=0;fontColor=#82B366;" parent="1" vertex="1">
                    <mxGeometry x="420" y="250" width="180" height="60" as="geometry"/>
                </mxCell>
                <mxCell id="FQvKzr6Gb9Vi9thFy315-18" value="mid &amp;lt; left &amp;amp; mid &amp;lt; right" style="text;html=1;align=center;verticalAlign=middle;whiteSpace=wrap;rounded=0;fontSize=15;fillColor=#f8cecc;strokeColor=none;spacingTop=0;fontColor=#B85450;" parent="1" vertex="1">
                    <mxGeometry x="620" y="250" width="180" height="60" as="geometry"/>
                </mxCell>
                <mxCell id="FQvKzr6Gb9Vi9thFy315-19" value="" style="line;strokeWidth=1;html=1;perimeter=backbonePerimeter;points=[];outlineConnect=0;fillColor=#f5f5f5;fontColor=#333333;strokeColor=#666666;" parent="1" vertex="1">
                    <mxGeometry y="350" width="840" height="10" as="geometry"/>
                </mxCell>
                <mxCell id="FQvKzr6Gb9Vi9thFy315-20" value="对第二种情况进行进一步分析&lt;div&gt;ll (l的left) 与 l 有两种关系&lt;/div&gt;" style="text;html=1;align=center;verticalAlign=middle;whiteSpace=wrap;rounded=0;fontSize=15;" parent="1" vertex="1">
                    <mxGeometry x="248" y="370" width="330" height="50" as="geometry"/>
                </mxCell>
                <mxCell id="FQvKzr6Gb9Vi9thFy315-24" value="l" style="ellipse;whiteSpace=wrap;html=1;aspect=fixed;fillColor=#e1d5e7;strokeColor=#9673a6;fontSize=14;fontColor=#9673A6;" parent="1" vertex="1">
                    <mxGeometry x="120" y="450" width="40" height="40" as="geometry"/>
                </mxCell>
                <mxCell id="FQvKzr6Gb9Vi9thFy315-25" value="m" style="ellipse;whiteSpace=wrap;html=1;aspect=fixed;fillColor=#e1d5e7;strokeColor=#9673a6;fontSize=14;fontColor=#9673A6;" parent="1" vertex="1">
                    <mxGeometry x="160" y="490" width="40" height="40" as="geometry"/>
                </mxCell>
                <mxCell id="FQvKzr6Gb9Vi9thFy315-26" value="r" style="ellipse;whiteSpace=wrap;html=1;aspect=fixed;fillColor=#e1d5e7;strokeColor=#9673a6;fontSize=14;fontColor=#9673A6;" parent="1" vertex="1">
                    <mxGeometry x="200" y="530" width="40" height="40" as="geometry"/>
                </mxCell>
                <mxCell id="FQvKzr6Gb9Vi9thFy315-27" value="ll" style="ellipse;whiteSpace=wrap;html=1;aspect=fixed;fillColor=#e1d5e7;strokeColor=#9673a6;fontSize=14;fontColor=#9673A6;" parent="1" vertex="1">
                    <mxGeometry x="80" y="490" width="40" height="40" as="geometry"/>
                </mxCell>
                <mxCell id="FQvKzr6Gb9Vi9thFy315-29" value="关系一：ll &amp;lt; l&lt;div&gt;此时 l 就是一个peak&lt;/div&gt;" style="text;html=1;align=center;verticalAlign=middle;whiteSpace=wrap;rounded=0;fontSize=15;fillColor=#e1d5e7;strokeColor=none;spacingTop=0;fontColor=#9673A6;" parent="1" vertex="1">
                    <mxGeometry x="60" y="580" width="180" height="60" as="geometry"/>
                </mxCell>
                <mxCell id="FQvKzr6Gb9Vi9thFy315-36" value="l" style="ellipse;whiteSpace=wrap;html=1;aspect=fixed;fillColor=#e1d5e7;strokeColor=#9673a6;fontSize=14;fontColor=#9673A6;" parent="1" vertex="1">
                    <mxGeometry x="580" y="450" width="40" height="40" as="geometry"/>
                </mxCell>
                <mxCell id="FQvKzr6Gb9Vi9thFy315-37" value="m" style="ellipse;whiteSpace=wrap;html=1;aspect=fixed;fillColor=#e1d5e7;strokeColor=#9673a6;fontSize=14;fontColor=#9673A6;" parent="1" vertex="1">
                    <mxGeometry x="620" y="490" width="40" height="40" as="geometry"/>
                </mxCell>
                <mxCell id="FQvKzr6Gb9Vi9thFy315-38" value="r" style="ellipse;whiteSpace=wrap;html=1;aspect=fixed;fillColor=#e1d5e7;strokeColor=#9673a6;fontSize=14;fontColor=#9673A6;" parent="1" vertex="1">
                    <mxGeometry x="660" y="530" width="40" height="40" as="geometry"/>
                </mxCell>
                <mxCell id="FQvKzr6Gb9Vi9thFy315-39" value="ll" style="ellipse;whiteSpace=wrap;html=1;aspect=fixed;fillColor=#e1d5e7;strokeColor=#9673a6;fontSize=14;fontColor=#9673A6;" parent="1" vertex="1">
                    <mxGeometry x="540" y="410" width="40" height="40" as="geometry"/>
                </mxCell>
                <mxCell id="FQvKzr6Gb9Vi9thFy315-40" value="关系二： ll &amp;gt; l&lt;div&gt;那么我们继续对 ll 左侧的元素进行分析&lt;/div&gt;" style="text;html=1;align=center;verticalAlign=middle;whiteSpace=wrap;rounded=0;fontSize=15;fillColor=#e1d5e7;strokeColor=none;spacingTop=0;fontColor=#9673A6;" parent="1" vertex="1">
                    <mxGeometry x="520" y="580" width="180" height="60" as="geometry"/>
                </mxCell>
                <mxCell id="FQvKzr6Gb9Vi9thFy315-41" value="" style="line;strokeWidth=1;html=1;perimeter=backbonePerimeter;points=[];outlineConnect=0;fillColor=#f5f5f5;fontColor=#333333;strokeColor=#666666;dashed=1;" parent="1" vertex="1">
                    <mxGeometry y="670" width="840" height="10" as="geometry"/>
                </mxCell>
                <mxCell id="FQvKzr6Gb9Vi9thFy315-42" value="对上面的关系二进一步分析&lt;div&gt;lll 与 ll 的关系有两种&lt;/div&gt;" style="text;html=1;align=center;verticalAlign=middle;whiteSpace=wrap;rounded=0;fontSize=15;" parent="1" vertex="1">
                    <mxGeometry x="260" y="680" width="330" height="50" as="geometry"/>
                </mxCell>
                <mxCell id="FQvKzr6Gb9Vi9thFy315-43" value="l" style="ellipse;whiteSpace=wrap;html=1;aspect=fixed;fillColor=#e1d5e7;strokeColor=#9673a6;fontSize=14;fontColor=#9673A6;" parent="1" vertex="1">
                    <mxGeometry x="160" y="800" width="40" height="40" as="geometry"/>
                </mxCell>
                <mxCell id="FQvKzr6Gb9Vi9thFy315-44" value="m" style="ellipse;whiteSpace=wrap;html=1;aspect=fixed;fillColor=#e1d5e7;strokeColor=#9673a6;fontSize=14;fontColor=#9673A6;" parent="1" vertex="1">
                    <mxGeometry x="200" y="840" width="40" height="40" as="geometry"/>
                </mxCell>
                <mxCell id="FQvKzr6Gb9Vi9thFy315-45" value="r" style="ellipse;whiteSpace=wrap;html=1;aspect=fixed;fillColor=#e1d5e7;strokeColor=#9673a6;fontSize=14;fontColor=#9673A6;" parent="1" vertex="1">
                    <mxGeometry x="240" y="880" width="40" height="40" as="geometry"/>
                </mxCell>
                <mxCell id="FQvKzr6Gb9Vi9thFy315-46" value="ll" style="ellipse;whiteSpace=wrap;html=1;aspect=fixed;fillColor=#e1d5e7;strokeColor=#9673a6;fontSize=14;fontColor=#9673A6;" parent="1" vertex="1">
                    <mxGeometry x="120" y="760" width="40" height="40" as="geometry"/>
                </mxCell>
                <mxCell id="FQvKzr6Gb9Vi9thFy315-47" value="lll" style="ellipse;whiteSpace=wrap;html=1;aspect=fixed;fillColor=#e1d5e7;strokeColor=#9673a6;fontSize=14;fontColor=#9673A6;" parent="1" vertex="1">
                    <mxGeometry x="80" y="800" width="40" height="40" as="geometry"/>
                </mxCell>
                <mxCell id="FQvKzr6Gb9Vi9thFy315-48" value="此刻 ll 就是一个peak" style="text;html=1;align=center;verticalAlign=middle;whiteSpace=wrap;rounded=0;fontSize=15;fillColor=#e1d5e7;strokeColor=none;spacingTop=0;fontColor=#9673A6;" parent="1" vertex="1">
                    <mxGeometry x="60" y="930" width="180" height="60" as="geometry"/>
                </mxCell>
                <mxCell id="FQvKzr6Gb9Vi9thFy315-50" value="l" style="ellipse;whiteSpace=wrap;html=1;aspect=fixed;fillColor=#e1d5e7;strokeColor=#9673a6;fontSize=14;fontColor=#9673A6;" parent="1" vertex="1">
                    <mxGeometry x="620" y="800" width="40" height="40" as="geometry"/>
                </mxCell>
                <mxCell id="FQvKzr6Gb9Vi9thFy315-51" value="m" style="ellipse;whiteSpace=wrap;html=1;aspect=fixed;fillColor=#e1d5e7;strokeColor=#9673a6;fontSize=14;fontColor=#9673A6;" parent="1" vertex="1">
                    <mxGeometry x="660" y="840" width="40" height="40" as="geometry"/>
                </mxCell>
                <mxCell id="FQvKzr6Gb9Vi9thFy315-52" value="r" style="ellipse;whiteSpace=wrap;html=1;aspect=fixed;fillColor=#e1d5e7;strokeColor=#9673a6;fontSize=14;fontColor=#9673A6;" parent="1" vertex="1">
                    <mxGeometry x="700" y="880" width="40" height="40" as="geometry"/>
                </mxCell>
                <mxCell id="FQvKzr6Gb9Vi9thFy315-53" value="ll" style="ellipse;whiteSpace=wrap;html=1;aspect=fixed;fillColor=#e1d5e7;strokeColor=#9673a6;fontSize=14;fontColor=#9673A6;" parent="1" vertex="1">
                    <mxGeometry x="580" y="760" width="40" height="40" as="geometry"/>
                </mxCell>
                <mxCell id="FQvKzr6Gb9Vi9thFy315-54" value="lll" style="ellipse;whiteSpace=wrap;html=1;aspect=fixed;fillColor=#e1d5e7;strokeColor=#9673a6;fontSize=14;fontColor=#9673A6;" parent="1" vertex="1">
                    <mxGeometry x="540" y="720" width="40" height="40" as="geometry"/>
                </mxCell>
                <mxCell id="FQvKzr6Gb9Vi9thFy315-55" value="在从m逐渐向左分析的过程中，只要存在一个节点 &amp;gt; 它的左邻居，那么这个节点就是一个peak&lt;div&gt;最坏情况是从第一个元素到m全部是大于关系&lt;/div&gt;" style="text;html=1;align=center;verticalAlign=middle;whiteSpace=wrap;rounded=0;fontSize=14;" parent="1" vertex="1">
                    <mxGeometry x="60" y="1030" width="730" height="50" as="geometry"/>
                </mxCell>
                <mxCell id="FQvKzr6Gb9Vi9thFy315-56" value="继续向左分析..." style="text;html=1;align=center;verticalAlign=middle;whiteSpace=wrap;rounded=0;fontSize=15;fillColor=#e1d5e7;strokeColor=none;spacingTop=0;fontColor=#9673A6;" parent="1" vertex="1">
                    <mxGeometry x="520" y="930" width="180" height="60" as="geometry"/>
                </mxCell>
                <mxCell id="FQvKzr6Gb9Vi9thFy315-57" value="" style="line;strokeWidth=1;html=1;perimeter=backbonePerimeter;points=[];outlineConnect=0;fillColor=#f5f5f5;fontColor=#333333;strokeColor=#666666;dashed=1;" parent="1" vertex="1">
                    <mxGeometry y="1010" width="840" height="10" as="geometry"/>
                </mxCell>
                <mxCell id="FQvKzr6Gb9Vi9thFy315-58" value="l" style="ellipse;whiteSpace=wrap;html=1;aspect=fixed;fillColor=#e1d5e7;strokeColor=#9673a6;fontSize=14;fontColor=#9673A6;" parent="1" vertex="1">
                    <mxGeometry x="520" y="1200" width="40" height="40" as="geometry"/>
                </mxCell>
                <mxCell id="FQvKzr6Gb9Vi9thFy315-59" value="m" style="ellipse;whiteSpace=wrap;html=1;aspect=fixed;fillColor=#e1d5e7;strokeColor=#9673a6;fontSize=14;fontColor=#9673A6;" parent="1" vertex="1">
                    <mxGeometry x="560" y="1240" width="40" height="40" as="geometry"/>
                </mxCell>
                <mxCell id="FQvKzr6Gb9Vi9thFy315-60" value="r" style="ellipse;whiteSpace=wrap;html=1;aspect=fixed;fillColor=#e1d5e7;strokeColor=#9673a6;fontSize=14;fontColor=#9673A6;" parent="1" vertex="1">
                    <mxGeometry x="600" y="1280" width="40" height="40" as="geometry"/>
                </mxCell>
                <mxCell id="FQvKzr6Gb9Vi9thFy315-61" value="nums[1]" style="ellipse;whiteSpace=wrap;html=1;aspect=fixed;fillColor=#e1d5e7;strokeColor=#9673a6;fontSize=14;fontColor=#9673A6;" parent="1" vertex="1">
                    <mxGeometry x="440" y="1120" width="40" height="40" as="geometry"/>
                </mxCell>
                <mxCell id="FQvKzr6Gb9Vi9thFy315-62" value="nums[0]" style="ellipse;whiteSpace=wrap;html=1;aspect=fixed;fillColor=#e1d5e7;strokeColor=#9673a6;fontSize=14;fontColor=#9673A6;" parent="1" vertex="1">
                    <mxGeometry x="400" y="1080" width="40" height="40" as="geometry"/>
                </mxCell>
                <mxCell id="FQvKzr6Gb9Vi9thFy315-64" value="..." style="whiteSpace=wrap;html=1;aspect=fixed;fillColor=none;strokeColor=none;fontColor=#9673A6;fontStyle=1;fontSize=15;" parent="1" vertex="1">
                    <mxGeometry x="480" y="1160" width="40" height="40" as="geometry"/>
                </mxCell>
                <mxCell id="FQvKzr6Gb9Vi9thFy315-65" value="-∞" style="ellipse;whiteSpace=wrap;html=1;aspect=fixed;fillColor=#d0cee2;strokeColor=#56517e;fontSize=17;fontStyle=1;fontColor=#999999;" parent="1" vertex="1">
                    <mxGeometry x="360" y="1120" width="40" height="40" as="geometry"/>
                </mxCell>
                <mxCell id="FQvKzr6Gb9Vi9thFy315-66" value="此刻第0个元素是peak&lt;div&gt;因为nums[-1] = -∞&lt;/div&gt;" style="text;html=1;align=center;verticalAlign=middle;whiteSpace=wrap;rounded=0;fontSize=15;fillColor=#e1d5e7;strokeColor=none;spacingTop=0;fontColor=#9673A6;" parent="1" vertex="1">
                    <mxGeometry x="335" y="1270" width="180" height="60" as="geometry"/>
                </mxCell>
                <mxCell id="FQvKzr6Gb9Vi9thFy315-67" value="" style="line;strokeWidth=1;html=1;perimeter=backbonePerimeter;points=[];outlineConnect=0;fillColor=#f5f5f5;fontColor=#333333;strokeColor=#666666;" parent="1" vertex="1">
                    <mxGeometry y="1350" width="840" height="10" as="geometry"/>
                </mxCell>
                <mxCell id="FQvKzr6Gb9Vi9thFy315-68" value="结论：" style="text;html=1;align=center;verticalAlign=middle;resizable=0;points=[];autosize=1;strokeColor=none;fillColor=none;fontSize=14;" parent="1" vertex="1">
                    <mxGeometry x="380" y="1370" width="70" height="30" as="geometry"/>
                </mxCell>
                <mxCell id="FQvKzr6Gb9Vi9thFy315-70" value="l" style="ellipse;whiteSpace=wrap;html=1;aspect=fixed;fillColor=#e1d5e7;strokeColor=#9673a6;fontSize=14;fontColor=#9673A6;" parent="1" vertex="1">
                    <mxGeometry x="98" y="1400" width="40" height="40" as="geometry"/>
                </mxCell>
                <mxCell id="FQvKzr6Gb9Vi9thFy315-71" value="m" style="ellipse;whiteSpace=wrap;html=1;aspect=fixed;fillColor=#e1d5e7;strokeColor=#9673a6;fontSize=14;fontColor=#9673A6;" parent="1" vertex="1">
                    <mxGeometry x="138" y="1440" width="40" height="40" as="geometry"/>
                </mxCell>
                <mxCell id="FQvKzr6Gb9Vi9thFy315-72" value="r" style="ellipse;whiteSpace=wrap;html=1;aspect=fixed;fillColor=#e1d5e7;strokeColor=#9673a6;fontSize=14;fontColor=#9673A6;" parent="1" vertex="1">
                    <mxGeometry x="178" y="1480" width="40" height="40" as="geometry"/>
                </mxCell>
                <mxCell id="FQvKzr6Gb9Vi9thFy315-73" value="&lt;div&gt;&lt;span style=&quot;background-color: initial;&quot;&gt;在mid的左侧必定存在一个peak&lt;/span&gt;&lt;br&gt;&lt;/div&gt;" style="text;html=1;align=center;verticalAlign=middle;whiteSpace=wrap;rounded=0;fontSize=15;fillColor=#e1d5e7;strokeColor=none;spacingTop=0;fontColor=#9673A6;" parent="1" vertex="1">
                    <mxGeometry x="68" y="1530" width="180" height="60" as="geometry"/>
                </mxCell>
                <mxCell id="FQvKzr6Gb9Vi9thFy315-74" value="r" style="ellipse;whiteSpace=wrap;html=1;aspect=fixed;fillColor=#d5e8d4;strokeColor=#82b366;fontSize=14;fontColor=#82B366;" parent="1" vertex="1">
                    <mxGeometry x="440" y="1400" width="40" height="40" as="geometry"/>
                </mxCell>
                <mxCell id="FQvKzr6Gb9Vi9thFy315-75" value="m" style="ellipse;whiteSpace=wrap;html=1;aspect=fixed;fillColor=#d5e8d4;strokeColor=#82b366;fontSize=14;fontColor=#82B366;" parent="1" vertex="1">
                    <mxGeometry x="400" y="1440" width="40" height="40" as="geometry"/>
                </mxCell>
                <mxCell id="FQvKzr6Gb9Vi9thFy315-76" value="l" style="ellipse;whiteSpace=wrap;html=1;aspect=fixed;fillColor=#d5e8d4;strokeColor=#82b366;fontSize=14;fontColor=#82B366;" parent="1" vertex="1">
                    <mxGeometry x="360" y="1480" width="40" height="40" as="geometry"/>
                </mxCell>
                <mxCell id="FQvKzr6Gb9Vi9thFy315-77" value="在mid的右侧必定存在一个peak" style="text;html=1;align=center;verticalAlign=middle;whiteSpace=wrap;rounded=0;fontSize=15;fillColor=#d5e8d4;strokeColor=none;spacingTop=0;fontColor=#82B366;" parent="1" vertex="1">
                    <mxGeometry x="340" y="1530" width="180" height="60" as="geometry"/>
                </mxCell>
                <mxCell id="FQvKzr6Gb9Vi9thFy315-78" value="m" style="ellipse;whiteSpace=wrap;html=1;aspect=fixed;fillColor=#f8cecc;strokeColor=#b85450;fontSize=14;fontColor=#B85450;" parent="1" vertex="1">
                    <mxGeometry x="670" y="1460" width="40" height="40" as="geometry"/>
                </mxCell>
                <mxCell id="FQvKzr6Gb9Vi9thFy315-79" value="l" style="ellipse;whiteSpace=wrap;html=1;aspect=fixed;fillColor=#f8cecc;strokeColor=#b85450;fontSize=14;fontColor=#B85450;" parent="1" vertex="1">
                    <mxGeometry x="630" y="1400" width="40" height="40" as="geometry"/>
                </mxCell>
                <mxCell id="FQvKzr6Gb9Vi9thFy315-80" value="r" style="ellipse;whiteSpace=wrap;html=1;aspect=fixed;fillColor=#f8cecc;strokeColor=#b85450;fontSize=14;fontColor=#B85450;" parent="1" vertex="1">
                    <mxGeometry x="710" y="1400" width="40" height="40" as="geometry"/>
                </mxCell>
                <mxCell id="FQvKzr6Gb9Vi9thFy315-81" value="mid的两侧都存在peak" style="text;html=1;align=center;verticalAlign=middle;whiteSpace=wrap;rounded=0;fontSize=15;fillColor=#f8cecc;strokeColor=none;spacingTop=0;fontColor=#B85450;" parent="1" vertex="1">
                    <mxGeometry x="600" y="1530" width="180" height="60" as="geometry"/>
                </mxCell>
                <mxCell id="FQvKzr6Gb9Vi9thFy315-82" value="我们只关注相邻元素的大小关系" style="text;html=1;align=center;verticalAlign=middle;whiteSpace=wrap;rounded=0;fontColor=#999999;" parent="1" vertex="1">
                    <mxGeometry x="213" y="58" width="377" height="30" as="geometry"/>
                </mxCell>
                <mxCell id="2" value="" style="line;strokeWidth=1;html=1;perimeter=backbonePerimeter;points=[];outlineConnect=0;fillColor=#f5f5f5;fontColor=#333333;strokeColor=#FFFFFF;dashed=1;" vertex="1" parent="1">
                    <mxGeometry y="1624" width="840" height="10" as="geometry"/>
                </mxCell>
            </root>
        </mxGraphModel>
    </diagram>
</mxfile>